<svg xmlns="http://www.w3.org/2000/svg" width="626.32" height="235.65" viewBox="0 0 626.32 235.65"><title>CADILLAC_2DCREST_INV</title><path d="M817.06,311.47l44.8-63.27H235.55l44.81,63.27,17.42,93.09c1.93,8.88,3.6,16.55,9.66,23.17,6.27,6.85,20.07,11.69,36.93,15.7,46.13,10.94,151.92,32.22,204.32,40.42,52.39-8.2,158.22-29.48,204.35-40.42,16.86-4,30.66-8.85,36.93-15.7,6.06-6.62,7.72-14.29,9.66-23.17Zm-268.37,168C496,471.28,391.2,450.14,345.36,439.27c-34.43-8.19-36.26-18.86-40.08-36.4-1.32-6.06-12.95-68.77-17.4-93.1L247.3,252.48H850.11l-40.58,57.29c-4.45,24.33-16.08,87-17.4,93.1-3.82,17.54-5.65,28.21-40.08,36.4C706.21,450.14,601.36,471.28,548.69,479.52ZM279.34,263.25l32,45.69c8,47.52,12.95,78.07,15,88.72,3.56,18.53,4.19,26.52,23.33,31.68,38.06,9,148.36,31.68,199.05,39.33,50.69-7.65,161-30.3,199.08-39.33,19.14-5.16,19.77-13.15,23.33-31.68,2-10.65,7-41.2,15-88.72l32-45.69Zm21.58,16.82h244.5V303.4h-6V286.08H360.14l10,17.39H317.29ZM319.47,309H545.42v17.36h-223Zm225.95,63.22v12.45H461.87V372.24ZM379,355.5H327.26l-4-23.71H545.42V355.5h-6V337.35H377.12ZM456,425H366.51c-6.28-1.41-10.82-2.44-14.9-3.4-8.43-2.29-11-4.71-12.34-6.79a13,13,0,0,1-1.14-2.14H456ZM328.19,361.09H456v34.83H334.16ZM545.42,460c-21.9-3.43-52.4-9.1-83.6-15.24V401.57h83.6ZM552,280.07h84.33V315H552Zm0,51.73h84.33v12.47H552Zm206.2,83c-1.37,2.08-3.88,4.64-12.36,6.75C708.3,430.85,605.13,451.31,552,460V412.62l207.32,0A10.77,10.77,0,0,1,758.16,414.8Zm2.76-7.34H552V390.15H764.3Zm4.32-22.72H714.91l2.47-17.64H558v17.59h-6v-23.6H769.22l-4,23.65m4.91-29.24H642.07V320.56H776Zm9.68-52-137.76.05v-12.4h146.4ZM599.2,445.62c-8.33,1.59-31.69,5.66-41.25,7.39v-34.4H705.64C698.57,426.94,684,429.41,599.2,445.62Z" transform="translate(-235.55 -248.2)" fill="#fff"/></svg>