<svg xmlns="http://www.w3.org/2000/svg" width="862.53" height="227.65" viewBox="0 0 862.53 227.65"><title>CADILLAC_HERITAGESCRIPT_POS</title><path fill="#ffffff" d="M703.82,331.56c-5.33,4.21-12,4.62-14.82.93s-.84-10.09,4.49-14.3,12-4.63,14.82-.93S709.15,327.35,703.82,331.56Zm-97.56,16.72c-1.74-1.24-4.42-2.23-8.7-2.1-5,.16-10.17,2.43-14.92,4.92-21,10.86-46,34.87-58,53.15-5.41,8.31-5.41,12-3.85,13.36,1.4,1.22,5.72.57,11.87-3C551.33,404,584.16,371.33,606.26,348.28ZM499,348.18c-1.61-1.38-3.86-1.85-8.13-1.84-5,0-11.07,2-15.91,4.37-21.2,10.3-48.74,35.37-61.13,53.34-5.64,8.17-5.69,12.25-4.05,13.88,1.36,1.36,5.63.24,11.85-3.15C440.49,404.59,476.3,370.67,499,348.18Zm202.36,44.53c39.06-25.95,72.93-59.19,88.07-80.45,8.23-11.5,2.45-16.76-9.5-9.21C748.39,323,709.2,365.48,701.35,392.71Zm240.19-44.53c-1.63-1.38-3.88-1.85-8.14-1.84-5,0-11.08,2-15.9,4.37-21.21,10.3-48.77,35.37-61.17,53.34-5.62,8.17-5.67,12.25-4,13.88,1.36,1.36,5.64.24,11.87-3.15C883,404.59,918.83,370.67,941.54,348.18Zm-467.49-5.39c17.76-5,36.74-4.67,48.68,3-.9.62-2.77,1.78-4.19,3-24.34,20-49.31,47.47-55.8,58.73-4.06,7-1.7,8.92-1.31,9.29,6.95,6.53,34.11-10.93,69.71-43.81,11.79-10.89,27.54-23,48.43-30.06a60.22,60.22,0,0,1,21.24-3.35,59.23,59.23,0,0,1,13.93,2.06c11.68-11.23,32.3-30.14,47.47-44.32,7.4,0,12.78,0,20.33-.29a24,24,0,0,0-3.62,2.61c-11.25,10.15-34.36,30.77-53.67,49-23.66,22.3-44.56,44.7-52,57.76-2.88,5.08-3.86,8.59-1.53,10.47,5.51,4.45,29.14-7.7,64.1-40.07,14.18-15.05,30.85-30.76,36.86-36.12,7.14,0,13.34,0,20.91-.13a54.05,54.05,0,0,0-6.45,4.8c-15.23,14-40.68,37.68-50.36,51.73-7.77,11.3-6.28,16.55-2.89,19.06,6.36,4.7,29.71-1.28,51.9-13.57-.62-8.81,2.67-20.45,9.25-31.82,11.25-19.47,35.86-47.39,76.56-70.64,12.09-6.89,22.41-9.16,26.9-4.86,4.29,4.12,3.23,12.78-3.84,23.39-20.09,30.17-56.51,57.52-95.13,82.59-2.33,15.09,20.19,27.2,66.84,1.68-.41-9,2.6-20.23,10.28-32.26,14.34-22.44,41.05-50.21,77.2-70.73,12.12-6.87,22-9.47,26.9-4.71,4.4,4.28,3.34,12.82-3.73,23.43-18.94,28.43-47.67,50.9-96.14,83.34-1,4.89-.31,9.17,2.3,11.9,6.08,6.37,21.31.22,28.75-2.86,22-9.11,29.09-19.23,55.68-39.69,19.67-15.14,33.18-23.58,49-28.44a66.86,66.86,0,0,1,26.52-3.21,64.08,64.08,0,0,1,22.16,6.17,49.63,49.63,0,0,0-4.2,3c-24.33,20-49.25,47-55.75,58.54-2.24,4-2.81,7.49-1,9.28,3.85,3.88,26.46-3,67.05-42.39,6.28-6.07,10.19-9.79,15.16-13.55,13.54-10.71,27.86-18.14,42.06-22.24,15.29-4.42,30.53-4,32.44,7.54,2.29,13.73-13.7,25.82-29.45,31.37l-.49-6c11.68-7.79,21.85-20.26,17.21-26.84-2.75-3.91-10.65-3.35-22.14,1.87-12.89,5.83-33.87,24.47-44.67,41.56-7.26,11.5-8.85,23.13-3.25,28.59s14.5,6,25.2,3.62c15.15-3.35,36.16-14.69,48.23-26.68l1.38,5.68c-7.87,8.51-27.3,21.8-48.67,26.83-17.77,4.2-31,1.51-38.67-6.31-6.53-6.64-7.68-17.5-3.8-28.66-36.34,34.09-57.15,37.6-64.29,31.3-6.18-5.45-4.33-18.13,2.95-27.85-10.9,9.32-22.94,18.81-32.56,24.42-15.63,9.11-24.22,5.56-25.81-4.45-.8-5.11,1.43-12,5.41-19.15C816.52,422,793,427.39,779.22,423c-5.89-1.87-9.9-6.81-11.79-13.49-40.59,21.54-73.85,20.2-81-.65-24.7,13.53-48.59,19.64-57.93,13.76-7.29-4.59-10.54-14-3.18-28.92-25.48,23.22-47.9,36.39-59.49,28.83-7.11-4.61-4.87-18.9,2-28.6-10.69,9.59-21.68,18.78-31.14,24.63-15.42,9.52-24.6,6-26.07-4.07-.8-5.5,1.9-12.9,5.82-20.44-32.56,30-54.17,35-61.43,27.87-5.9-5.81-4.35-17.69,3-27.53-10.9,9.32-22.95,18.81-32.56,24.42-15.63,9.11-24.23,5.56-25.81-4.45-.92-5.8,2.1-13.87,7.12-22.07-41.76,34-93.83,61.59-128.9,61.54-43.69-.07-56.21-31.42-40.47-69,5.41-12.89,15.84-27.33,29.1-40.83-39.66-2.57-58-11.69-65.41-25.46-5.16-9.51-2.9-26.78,15.82-42.42,28.42-23.76,82.42-38.94,123.88-43.6a188.78,188.78,0,0,1,22-1.33l3.81,6.94c-36.71-3.39-104.28,14.06-133,40C213.87,296,215.23,312.36,225,322.61c7,7.32,18.8,13.22,48.58,14.58,3.14-2.88,6.37-5.71,9.71-8.44C343.1,279.94,430,238,504.67,227.26c17-2.45,32.77-1.45,36,10.49,4,14.74-11.26,37.73-64.32,64.14-45.85,22.83-121,42.68-183.94,42.88-13.78,14.31-25,28.55-33.31,42.51C239.59,420,248.62,446.87,279.62,447c43.26.15,102-39.5,140.76-73.66C420.38,373.32,446.1,350.57,474.05,342.79Zm-174.36-5c65.88-2.06,122.1-21.54,181.74-50.45,37.56-18.19,54.59-37,52.13-47.17-2-8.47-14.77-8.53-28.25-6.44-69.7,10.83-151.76,55.51-194,93.23C307.23,330.59,303.41,334.2,299.69,337.8Zm482.86,55.8c39.27-26.12,75.58-61.44,90.37-83.07,6.7-9.79,0-14.21-8.93-8.7C832.6,321.19,791,365.34,782.55,393.6Z" transform="translate(-198.7 -226.18)"/></svg>