<svg xmlns="http://www.w3.org/2000/svg" viewBox="0 0 48 48"><defs><style>.cls-1{fill:#1e0f00;}</style></defs><title>Asset 321</title><g id="Layer_2" data-name="Layer 2"><g id="_1" data-name="1"><rect class="cls-1" y="46" width="48" height="2"/><path class="cls-1" d="M46.31,23.72,24,2.38,1.69,23.72.31,22.28l23-22a1,1,0,0,1,1.38,0l23,22Z"/><path class="cls-1" d="M43,48H5a1,1,0,0,1-1-1V19.52H6V46H42V19.52h2V47A1,1,0,0,1,43,48Z"/><path class="cls-1" d="M8,17.19H6V3A1,1,0,0,1,7,2h6a1,1,0,0,1,1,1v8.52H12V4H8Z"/><rect class="cls-1" x="5" y="2" width="10" height="2"/><path class="cls-1" d="M24,43A15,15,0,1,1,39,28,15,15,0,0,1,24,43Zm0-28A13,13,0,1,0,37,28,13,13,0,0,0,24,15Z"/><path class="cls-1" d="M24,32a4,4,0,1,1,4-4A4,4,0,0,1,24,32Zm0-6a2,2,0,1,0,2,2A2,2,0,0,0,24,26Z"/><rect class="cls-1" x="14.7" y="29.61" width="6.85" height="2" transform="translate(-10.87 10.01) rotate(-23.97)"/><rect class="cls-1" x="27.42" y="29.48" width="2" height="8.4" transform="translate(-14.69 24.54) rotate(-37.87)"/><rect class="cls-1" x="13" y="27" width="2" height="2"/><rect class="cls-1" x="23" y="37" width="2" height="2"/><rect class="cls-1" x="23" y="17" width="2" height="2"/><rect class="cls-1" x="33" y="27" width="2" height="2"/></g></g></svg>