<svg xmlns="http://www.w3.org/2000/svg" width="48" height="48.004" viewBox="0 0 48 48.004">
  <g>
    <path d="M25.857,38.67H38.485a.729.729,0,0,0,.728-.729V26.427a.729.729,0,0,0-.728-.729H25.857a.728.728,0,0,0-.727.729V37.941A.728.728,0,0,0,25.857,38.67Zm.728-5.758h4.859v4.3H26.585Zm6.313,4.3v-4.3h4.859v4.3Zm4.86-5.758H32.9v-4.3h4.859Zm-6.314-4.3v4.3H26.585v-4.3Z" fill="#1a171b"/>
    <path d="M24,7.607a4.363,4.363,0,1,0,4.364,4.363A4.368,4.368,0,0,0,24,7.607Zm0,7.274a2.909,2.909,0,1,1,2.909-2.91A2.913,2.913,0,0,1,24,14.881Z" fill="#1a171b"/>
    <path d="M47.273,46.547H45.091V20.85h2.182a.727.727,0,0,0,.466-1.286L24.466.169a.726.726,0,0,0-.931,0L16.061,6.4V1.455h.7a.727.727,0,1,0,0-1.454h-8a.727.727,0,0,0,0,1.454H9.47V11.891L.262,19.565a.727.727,0,0,0,.466,1.286H2.91v25.7H.728A.728.728,0,1,0,.728,48H47.273a.729.729,0,0,0,0-1.457ZM10.924,1.455h3.682V7.609l-3.682,3.07Zm8.387,45.092H10.1V27.154h9.212Zm24.325,0H20.765V26.428a.729.729,0,0,0-.727-.729H9.371a.728.728,0,0,0-.727.729V46.547H4.363V20.85H43.635v25.7ZM3.636,19.4h-.9L24,1.675,45.264,19.4H3.636Z" fill="#1a171b"/>
    <circle cx="17.372" cy="37.942" r="0.728" fill="#1a171b"/>
  </g>
</svg>
